<?xml version="1.0" encoding="UTF-8"?>
<svg width="752pt" height="752pt" version="1.1" viewBox="0 0 752 752" xmlns="http://www.w3.org/2000/svg">
 <g>
  <path d="m752 376c0 134.33-71.664 258.46-188 325.62-116.34 67.168-259.66 67.168-376 0-116.34-67.164-188-191.29-188-325.62s71.664-258.46 188-325.62c116.34-67.168 259.66-67.168 376 0 116.34 67.164 188 191.29 188 325.62" fill="#fff"/>
  <path d="m262.34 162.89c-23.484 0-42.621 19.141-42.621 42.621 0 23.484 19.141 42.621 42.621 42.621 23.484 0 42.621-19.141 42.621-42.621 0-23.484-19.141-42.621-42.621-42.621zm113.66 0c-23.484 0-42.621 19.141-42.621 42.621 0 23.484 19.141 42.621 42.621 42.621 23.484 0 42.621-19.141 42.621-42.621 0-23.484-19.141-42.621-42.621-42.621zm113.66 0c-23.484 0-42.621 19.141-42.621 42.621 0 23.484 19.141 42.621 42.621 42.621 23.484 0 42.621-19.141 42.621-42.621 0-23.484-19.141-42.621-42.621-42.621zm-227.32 9.4727c18.363 0 33.152 14.785 33.152 33.152 0 18.363-14.785 33.152-33.152 33.152-18.363 0-33.152-14.785-33.152-33.152 0-18.363 14.785-33.152 33.152-33.152zm113.66 0c18.363 0 33.152 14.785 33.152 33.152 0 18.363-14.785 33.152-33.152 33.152-18.363 0-33.152-14.785-33.152-33.152 0-18.363 14.785-33.152 33.152-33.152zm113.66 0c18.363 0 33.152 14.785 33.152 33.152 0 18.363-14.785 33.152-33.152 33.152-18.363 0-33.152-14.785-33.152-33.152 0-18.363 14.785-33.152 33.152-33.152zm-227.32 104.19c-23.484 0-42.621 19.141-42.621 42.621 0 23.484 19.141 42.621 42.621 42.621 23.484 0 42.621-19.141 42.621-42.621 0-23.484-19.141-42.621-42.621-42.621zm113.66 0c-23.484 0-42.621 19.141-42.621 42.621 0 23.484 19.141 42.621 42.621 42.621 23.484 0 42.621-19.141 42.621-42.621 0-23.484-19.141-42.621-42.621-42.621zm113.66 0c-23.484 0-42.621 19.141-42.621 42.621 0 23.484 19.141 42.621 42.621 42.621 23.484 0 42.621-19.141 42.621-42.621 0-23.484-19.141-42.621-42.621-42.621zm-227.32 9.4727c18.363 0 33.152 14.785 33.152 33.152 0 18.363-14.785 33.152-33.152 33.152-18.363 0-33.152-14.785-33.152-33.152 0-18.363 14.785-33.152 33.152-33.152zm113.66 0c18.363 0 33.152 14.785 33.152 33.152 0 18.363-14.785 33.152-33.152 33.152-18.363 0-33.152-14.785-33.152-33.152 0-18.363 14.785-33.152 33.152-33.152zm113.66 0c18.363 0 33.152 14.785 33.152 33.152 0 18.363-14.785 33.152-33.152 33.152-18.363 0-33.152-14.785-33.152-33.152 0-18.363 14.785-33.152 33.152-33.152zm-227.32 104.19c-23.484 0-42.621 19.141-42.621 42.621 0 23.484 19.141 42.621 42.621 42.621 23.484 0 42.621-19.141 42.621-42.621 0-23.484-19.141-42.621-42.621-42.621zm113.66 0c-23.484 0-42.621 19.141-42.621 42.621 0 23.484 19.141 42.621 42.621 42.621 23.484 0 42.621-19.141 42.621-42.621 0-23.484-19.141-42.621-42.621-42.621zm113.66 0c-23.484 0-42.621 19.141-42.621 42.621 0 23.484 19.141 42.621 42.621 42.621 23.484 0 42.621-19.141 42.621-42.621 0-23.484-19.141-42.621-42.621-42.621zm-227.32 9.4727c18.363 0 33.152 14.785 33.152 33.152 0 18.363-14.785 33.152-33.152 33.152-18.363 0-33.152-14.785-33.152-33.152 0-18.363 14.785-33.152 33.152-33.152zm113.66 0c18.363 0 33.152 14.785 33.152 33.152 0 18.363-14.785 33.152-33.152 33.152-18.363 0-33.152-14.785-33.152-33.152 0-18.363 14.785-33.152 33.152-33.152zm113.66 0c18.363 0 33.152 14.785 33.152 33.152 0 18.363-14.785 33.152-33.152 33.152-18.363 0-33.152-14.785-33.152-33.152 0-18.363 14.785-33.152 33.152-33.152zm-113.66 104.19c-23.484 0-42.621 19.141-42.621 42.621 0 23.484 19.141 42.621 42.621 42.621 23.484 0 42.621-19.141 42.621-42.621 0-23.484-19.141-42.621-42.621-42.621zm0 9.4727c18.363 0 33.152 14.785 33.152 33.152 0 18.363-14.785 33.152-33.152 33.152-18.363 0-33.152-14.785-33.152-33.152 0-18.363 14.785-33.152 33.152-33.152z"/>
 </g>
</svg>
